<svg version="1.1" id="Layer_2_00000056409597104996869050000011869582720663395488_" xmlns="http://www.w3.org/2000/svg" xmlns:xlink="http://www.w3.org/1999/xlink" x="0px" y="0px" viewBox="0 0 841.5 77" style="enable-background:new 0 0 841.5 77;" xml:space="preserve">
<g id="Layer_1-2">
	<g>
		<g class="logo__word">
			<path class="st0" d="M179.3,5.4h8.8l19.7,46.2l19.5-46.2h8.6v55.7H229V17.2l-18.4,43.9h-6.1L186,17.2v43.9h-6.8L179.3,5.4
				L179.3,5.4L179.3,5.4z"></path>
			<path class="st0" d="M283.6,55.1v6H280c-2.6,0-4.5-0.5-5.6-1.6c-1.1-1.1-1.7-2.6-1.8-4.7c-3.1,4.5-7.7,6.8-13.6,6.8
				c-4.5,0-8.1-1.1-10.9-3.2c-2.7-2.1-4.1-5-4.1-8.7c0-4.1,1.4-7.2,4.2-9.4s6.8-3.3,12.1-3.3h11.9v-2.8c0-2.6-0.9-4.7-2.7-6.2
				c-1.8-1.5-4.2-2.2-7.4-2.2c-2.8,0-5.1,0.6-7,1.9s-3,2.9-3.4,5h-6.5c0.5-4,2.2-7.1,5.3-9.3c3.1-2.2,7-3.3,11.9-3.3
				c5.2,0,9.2,1.3,12,3.8c2.8,2.5,4.2,6.1,4.2,10.9v17.5c0,2,0.9,2.9,2.7,2.9L283.6,55.1L283.6,55.1z M272.4,42.6h-12.6
				c-6,0-9.1,2.2-9.1,6.8c0,2,0.8,3.6,2.4,4.8c1.6,1.2,3.7,1.8,6.4,1.8c4,0,7.1-1,9.4-3.1s3.4-4.9,3.4-8.3L272.4,42.6
				C272.4,42.6,272.4,42.6,272.4,42.6z"></path>
			<path class="st0" d="M318.8,57.7c-3.1,2.6-7.1,3.9-11.9,3.9c-3.9,0-7.4-0.9-10.3-2.6c-3-1.8-5.3-4.2-6.9-7.3
				c-1.6-3.2-2.5-6.8-2.5-10.8s0.8-7.7,2.5-10.8s4-5.5,7-7.3c3-1.7,6.5-2.6,10.4-2.6c4.8,0,8.7,1.3,11.8,3.8c3.1,2.5,5,6,5.8,10.5
				h-6.6c-0.6-2.6-2-4.7-4-6.2c-2-1.5-4.5-2.3-7.3-2.3c-3.9,0-7,1.4-9.4,4.1c-2.4,2.8-3.6,6.3-3.6,10.7s1.2,8.1,3.6,10.8
				s5.5,4.2,9.4,4.2c3,0,5.5-0.8,7.5-2.3s3.3-3.7,3.9-6.4h6.5C323.9,51.6,321.9,55.2,318.8,57.7L318.8,57.7L318.8,57.7z"></path>
			<path class="st0" d="M364.1,24.5c3,3,4.5,7.6,4.5,14v22.6h-6.5V38.9c0-4.2-1-7.4-2.9-9.6c-1.9-2.2-4.6-3.3-8.2-3.3
				c-3.8,0-6.8,1.3-9,4s-3.3,6.2-3.3,10.8v20.3h-6.5V5.4h6.5v21.8c1.3-2.1,3.1-3.8,5.3-5.2c2.2-1.3,4.9-2,8.1-2
				C357.1,20.1,361.1,21.6,364.1,24.5L364.1,24.5L364.1,24.5z"></path>
			<path class="st0" d="M383.3,6.1c0.8,0.8,1.2,1.8,1.2,3s-0.4,2.2-1.2,3s-1.8,1.2-3,1.2s-2.2-0.4-3-1.2s-1.2-1.8-1.2-3
				s0.4-2.2,1.2-3s1.8-1.2,3-1.2S382.5,5.3,383.3,6.1z M377,20.6h6.5v40.5H377C377,61.1,377,20.6,377,20.6z"></path>
			<path class="st0" d="M424.2,24.5c3,3,4.5,7.6,4.5,14v22.6h-6.5V38.9c0-4.2-0.9-7.4-2.8-9.6s-4.6-3.3-8.1-3.3c-3.8,0-6.8,1.3-9,4
				s-3.3,6.2-3.3,10.8v20.3h-6.5V20.6h5.6l0.9,5.5c3.1-4,7.5-6,13.4-6C417.2,20.1,421.2,21.6,424.2,24.5L424.2,24.5L424.2,24.5z"></path>
			<path class="st0" d="M438,29.9c1.6-3.1,3.9-5.6,6.8-7.3s6.2-2.6,10-2.6s7,0.8,9.9,2.3s5.1,3.8,6.8,6.7c1.6,2.9,2.5,6.3,2.6,10.3
				c0,0.6,0,1.5-0.2,2.8h-31.5v0.6c0.1,4,1.3,7.2,3.7,9.5c2.3,2.4,5.4,3.6,9.1,3.6c2.9,0,5.4-0.7,7.4-2.2c2-1.5,3.4-3.5,4.1-6.1h6.6
				c-0.8,4.1-2.8,7.5-6,10.1c-3.2,2.6-7.1,3.9-11.7,3.9c-4,0-7.5-0.9-10.6-2.6c-3-1.7-5.4-4.2-7-7.3s-2.5-6.8-2.5-10.9
				S436.4,33.1,438,29.9C438,30,438,29.9,438,29.9z M467.3,36.7c-0.3-3.5-1.6-6.1-3.9-8c-2.2-1.9-5.1-2.9-8.5-2.9
				c-3.1,0-5.8,1-8.1,3c-2.3,2-3.7,4.6-4,7.9H467.3L467.3,36.7z"></path>
			<path class="st0" d="M503.3,5.4h16.5c5.7,0,10.7,1.2,14.9,3.5s7.5,5.6,9.7,9.7s3.4,9.1,3.4,14.6s-1.1,10.4-3.4,14.6
				s-5.5,7.5-9.7,9.8s-9.2,3.5-14.9,3.5h-16.5V5.4z M519.8,54.8c6.6,0,11.8-1.9,15.4-5.8c3.7-3.9,5.5-9.1,5.5-15.7
				s-1.8-11.9-5.5-15.7s-8.8-5.8-15.5-5.8h-9.5v42.9H519.8L519.8,54.8z"></path>
			<path class="st0" d="M561.8,6.1c0.8,0.8,1.2,1.8,1.2,3s-0.4,2.2-1.2,3s-1.8,1.2-3,1.2s-2.2-0.4-3-1.2s-1.2-1.8-1.2-3
				s0.4-2.2,1.2-3s1.8-1.2,3-1.2S561.1,5.3,561.8,6.1z M555.6,20.6h6.5v40.5h-6.5C555.6,61.1,555.6,20.6,555.6,20.6z"></path>
			<path class="st0" d="M576.1,47.8c0.1,2.4,1.2,4.4,3.2,6c2,1.5,4.7,2.3,7.9,2.3c2.9,0,5.2-0.6,7-1.7s2.7-2.6,2.7-4.5
				c0-1.6-0.4-2.8-1.3-3.7c-0.8-0.8-2-1.4-3.3-1.8s-3.3-0.6-5.8-1c-3.5-0.4-6.4-1-8.6-1.7c-2.2-0.7-4-1.8-5.4-3.3
				c-1.4-1.5-2.1-3.6-2.1-6.2c0-2.4,0.7-4.5,2-6.4c1.3-1.9,3.2-3.3,5.5-4.3c2.3-1,5-1.5,7.9-1.5c4.8,0,8.7,1.1,11.7,3.3
				c3,2.2,4.7,5.4,5,9.5H596c-0.3-2.1-1.3-3.9-3.1-5.2c-1.8-1.4-4-2.1-6.8-2.1s-5,0.6-6.7,1.7s-2.5,2.6-2.5,4.5
				c0,1.4,0.4,2.4,1.2,3.2c0.8,0.7,1.8,1.2,3.1,1.5c1.2,0.3,3.1,0.6,5.7,0.9c3.5,0.4,6.5,1,8.8,1.8s4.2,1.9,5.6,3.6
				c1.4,1.6,2.1,3.9,2.1,6.7c0,2.4-0.7,4.6-2.2,6.4c-1.4,1.9-3.4,3.3-5.8,4.3c-2.4,1-5.1,1.5-8.1,1.5c-5.3,0-9.6-1.2-12.8-3.7
				c-3.2-2.4-4.8-5.8-4.9-10.2L576.1,47.8L576.1,47.8z"></path>
			<path class="st0" d="M640.9,57.7c-3.1,2.6-7.1,3.9-11.9,3.9c-3.9,0-7.4-0.9-10.3-2.6c-3-1.8-5.3-4.2-6.9-7.3
				c-1.6-3.2-2.5-6.8-2.5-10.8s0.8-7.7,2.5-10.8s4-5.5,7-7.3s6.5-2.6,10.4-2.6c4.8,0,8.7,1.3,11.8,3.8c3.1,2.5,5,6,5.8,10.5h-6.6
				c-0.6-2.6-2-4.7-4-6.2c-2-1.5-4.5-2.3-7.3-2.3c-3.9,0-7,1.4-9.4,4.1c-2.4,2.8-3.6,6.3-3.6,10.7s1.2,8.1,3.6,10.8s5.5,4.2,9.4,4.2
				c3,0,5.5-0.8,7.5-2.3c2-1.5,3.3-3.7,3.9-6.4h6.5C646,51.6,644,55.2,640.9,57.7L640.9,57.7L640.9,57.7z"></path>
			<path class="st0" d="M661.8,59c-3-1.8-5.4-4.2-7.1-7.3s-2.5-6.7-2.5-10.8s0.8-7.7,2.5-10.8c1.7-3.1,4.1-5.6,7.1-7.3
				s6.5-2.6,10.5-2.6s7.4,0.9,10.5,2.6c3,1.8,5.4,4.2,7.1,7.3s2.5,6.7,2.5,10.8s-0.8,7.7-2.5,10.8c-1.7,3.1-4.1,5.6-7.1,7.3
				s-6.5,2.6-10.5,2.6S664.8,60.7,661.8,59z M679.2,53.9c2-1.3,3.6-3,4.7-5.3s1.7-4.8,1.7-7.7s-0.6-5.4-1.7-7.7s-2.7-4-4.7-5.3
				c-2-1.3-4.4-1.9-7-1.9s-5,0.6-7,1.9s-3.6,3-4.7,5.3s-1.7,4.8-1.7,7.7s0.6,5.4,1.7,7.7s2.7,4,4.7,5.3c2,1.3,4.4,1.9,7,1.9
				S677.2,55.1,679.2,53.9z"></path>
			<path class="st0" d="M694.2,20.6h7l12.2,33.2l12.2-33.2h6.8l-15.2,40.5h-7.9C709.3,61.1,694.2,20.6,694.2,20.6z"></path>
			<path class="st0" d="M736.7,29.9c1.6-3.1,3.9-5.6,6.8-7.3s6.2-2.6,10-2.6s7,0.8,9.9,2.3s5.1,3.8,6.8,6.7
				c1.6,2.9,2.5,6.3,2.6,10.3c0,0.6,0,1.5-0.2,2.8h-31.5v0.6c0.1,4,1.3,7.2,3.7,9.5c2.3,2.4,5.4,3.6,9.1,3.6c2.9,0,5.4-0.7,7.4-2.2
				s3.4-3.5,4.1-6.1h6.6c-0.8,4.1-2.8,7.5-6,10.1c-3.2,2.6-7.1,3.9-11.7,3.9c-4,0-7.5-0.9-10.6-2.6c-3-1.7-5.4-4.2-7-7.3
				s-2.5-6.8-2.5-10.9S735,33.1,736.7,29.9C736.6,30,736.7,29.9,736.7,29.9z M766,36.7c-0.3-3.5-1.6-6.1-3.9-8
				c-2.2-1.9-5.1-2.9-8.5-2.9c-3.1,0-5.8,1-8.1,3c-2.3,2-3.7,4.6-4,7.9H766L766,36.7z"></path>
			<path class="st0" d="M800.8,20.6v6.4h-3.3c-3.9,0-6.6,1.3-8.3,3.9s-2.5,5.8-2.5,9.6v20.7h-6.5V20.6h5.7l0.9,6.1
				c1.2-1.9,2.7-3.3,4.5-4.5s4.4-1.7,7.7-1.7H800.8L800.8,20.6z"></path>
			<path class="st0" d="M810,20.6l12.5,33.1l12.1-33.1h6.9l-18.7,47.4c-1,2.4-1.8,4.3-2.5,5.5s-1.7,2.1-2.8,2.7
				c-1.1,0.6-2.6,0.9-4.5,0.9h-7.8v-6h5.8c1.3,0,2.2-0.1,2.9-0.4c0.6-0.3,1.2-0.7,1.5-1.3c0.4-0.6,0.9-1.6,1.5-3.1l2.1-4.8
				l-15.9-40.9L810,20.6L810,20.6z"></path>
		</g>
		<path class="st0" d="M21.8,65.3l31.8-31.8c1-1,2.4-1.6,3.9-1.6c3.1,0,5.5,2.5,5.5,5.5v23.9c0,3.1,2.5,5.5,5.5,5.5
			c1.5,0,2.9-0.6,3.9-1.6c0,0,31.7-31.7,31.7-31.7c1-1,2.4-1.6,3.9-1.6c3.1,0,5.5,2.5,5.5,5.5c0,0,0,23.9,0,23.9
			c0,3.1,2.5,5.5,5.5,5.5c1.6,0,3.1-0.7,4.1-1.8l0,0l28.7-28.7c0,0-2.9-2.9-2.9-2.9c-1,1-2.4,1.6-3.9,1.6c-3.1,0-5.5-2.5-5.5-5.5
			c0,0,0-23.9,0-23.9c0-3.1-2.5-5.5-5.5-5.5c-1.5,0-2.9,0.6-3.9,1.6L98.7,33.2l0,0c-1,1.1-2.5,1.8-4.1,1.8c-3.1,0-5.5-2.5-5.5-5.5
			c0,0,0-23.9,0-23.9c0-3.1-2.5-5.5-5.5-5.5c-1.5,0-2.9,0.6-3.9,1.6c0,0-31.7,31.7-31.7,31.7c-1,1-2.4,1.6-3.9,1.6
			c-3.1,0-5.5-2.5-5.5-5.5V5.5c0-3.1-2.5-5.5-5.5-5.5c-1.5,0-2.9,0.6-3.9,1.6C28.9,1.6,0,30.6,0,30.6c0,0,2.9,2.9,2.9,2.9
			c1-1,2.4-1.6,3.9-1.6c3.1,0,5.5,2.5,5.5,5.5c0,0,0,23.9,0,23.9c0,3.1,2.5,5.5,5.5,5.5C19.5,66.9,20.9,66.3,21.8,65.3"></path>
	</g>
</g>
</svg>